<svg xmlns="http://www.w3.org/2000/svg" viewBox="0 0 47.81 31.88"><defs><style>.cls-1{fill:#616e7f;}</style></defs><title>Element 22</title><g id="Ebene_2" data-name="Ebene 2"><g id="H_Element_Sutdiumsbereich" data-name="H_Element Sutdiumsbereich"><path class="cls-1" d="M47.36,8.61l-23.24,7.3a1.06,1.06,0,0,1-.41,0L10.17,11.64c-1.18.93-2,3.22-2.18,6A2.59,2.59,0,0,1,9.3,19.92a2.65,2.65,0,0,1-1.2,2.22l1.2,9a.68.68,0,0,1-.17.52.66.66,0,0,1-.5.23h-4a.66.66,0,0,1-.5-.23A.68.68,0,0,1,4,31.13l1.2-9a2.65,2.65,0,0,1,.15-4.52,13.41,13.41,0,0,1,2-6.85L.46,8.61a.68.68,0,0,1,0-1.29L23.7,0a1.06,1.06,0,0,1,.41,0l23.24,7.3a.68.68,0,0,1,0,1.29ZM37.19,21.25c.17,2.93-6,5.31-13.28,5.31s-13.45-2.39-13.28-5.31L11,14.69l11.91,3.76a3.48,3.48,0,0,0,2,0l11.91-3.76Z"/></g></g></svg>