<svg xmlns="http://www.w3.org/2000/svg" viewBox="0 0 31.99 27.42"><defs><style>.cls-1{fill:#394a5f;}</style></defs><title>Element 16</title><g id="Ebene_2" data-name="Ebene 2"><g id="Content"><path class="cls-1" d="M30.15,13.71H23.57l-2-3.95a1.15,1.15,0,0,0-1.11-.62,1.13,1.13,0,0,0-1,.82l-2.3,7.68L13.67,5.39a1.16,1.16,0,0,0-1.12-.82,1.13,1.13,0,0,0-1.09.86L9.39,13.71H1.84A9.93,9.93,0,0,1,0,8.36C0,3.12,3.2,0,8.53,0,11.66,0,14.59,2.46,16,3.86,17.41,2.46,20.33,0,23.46,0,28.8,0,32,3.12,32,8.36A9.93,9.93,0,0,1,30.15,13.71ZM28.3,16c-.21.23-.36.36-.39.39L16.78,27.1a1.12,1.12,0,0,1-1.57,0L4.07,16.35A2.58,2.58,0,0,1,3.7,16h6.59a1.15,1.15,0,0,0,1.11-.86l1.25-5L16,22a1.14,1.14,0,0,0,2.2,0l2.61-8.66,1,2a1.16,1.16,0,0,0,1,.63Z"/></g></g></svg>