<svg xmlns="http://www.w3.org/2000/svg" viewBox="0 0 24 36"><defs><style>.cls-1{fill:#616e7f;}</style></defs><title>Element 20</title><g id="Ebene_2" data-name="Ebene 2"><g id="H_Element_Sutdiumsbereich" data-name="H_Element Sutdiumsbereich"><path class="cls-1" d="M21.59,16.78c-1.62,1.78-3.75,4.29-3.94,6.8a2.25,2.25,0,0,1,1.1,1.92,2.19,2.19,0,0,1-.59,1.5,2.19,2.19,0,0,1,.59,1.5,2.25,2.25,0,0,1-1.05,1.9,2.24,2.24,0,0,1-2.25,3.35,3.76,3.76,0,0,1-6.89,0A2.24,2.24,0,0,1,6.3,30.4a2.25,2.25,0,0,1-1.05-1.9A2.19,2.19,0,0,1,5.84,27a2.19,2.19,0,0,1-.59-1.5,2.25,2.25,0,0,1,1.1-1.92c-.19-2.51-2.32-5-3.94-6.8A9,9,0,0,1,0,10.5C0,4.13,6.07,0,12,0S24,4.13,24,10.5A9,9,0,0,1,21.59,16.78ZM12,3C7.76,3,3,5.81,3,10.5a6.68,6.68,0,0,0,1.59,4.22c.45.52,1,1,1.43,1.55a13,13,0,0,1,3.3,7h5.34a13,13,0,0,1,3.3-7c.47-.54,1-1,1.43-1.55A6.68,6.68,0,0,0,21,10.5C21,5.81,16.24,3,12,3Zm4.5,8.25a.77.77,0,0,1-.75-.75c0-1.62-2.51-2.25-3.75-2.25a.75.75,0,0,1,0-1.5c2.18,0,5.25,1.15,5.25,3.75A.77.77,0,0,1,16.5,11.25Z"/></g></g></svg>