<?xml version="1.0" encoding="utf-8"?>
<svg version="1.1" id="Layer_1" xmlns="http://www.w3.org/2000/svg" xmlns:xlink="http://www.w3.org/1999/xlink" x="0px" y="0px"
	 viewBox="0 0 512 512" style="enable-background:new 0 0 512 512;" xml:space="preserve">
<style type="text/css">
	.st0{fill:#555555;}
</style>
<g>
	<path class="st0" d="M192.2,267.7h-27.6l-7.2-21h-38.4l-7.2,21h-27L123,163.9h30.8L192.2,267.7z M150.9,227.7l-12.8-37.2
		l-12.8,37.2H150.9z"/>
	<path class="st0" d="M295.9,235.9c0,5-1,9.5-3,13.5c-2,4-4.8,7.2-8.3,9.8c-4.1,3.1-8.6,5.3-13.5,6.6c-4.9,1.3-11.1,2-18.6,2h-45.3
		V163.9h40.3c8.4,0,14.5,0.3,18.4,0.8c3.9,0.6,7.7,1.8,11.5,3.7c3.9,2,6.9,4.7,8.8,8.1c1.9,3.4,2.9,7.2,2.9,11.5c0,5-1.3,9.4-4,13.3
		c-2.6,3.8-6.4,6.8-11.2,9v0.6c6.8,1.3,12.2,4.1,16.1,8.4C293.9,223.4,295.9,229,295.9,235.9z M261.6,193.3c0-1.7-0.4-3.4-1.3-5.2
		c-0.9-1.7-2.4-3-4.6-3.8c-2-0.7-4.4-1.2-7.3-1.2s-7-0.1-12.2-0.1h-2.5v22h4.2c4.2,0,7.8-0.1,10.8-0.2c3-0.1,5.3-0.6,7-1.4
		c2.4-1.1,4-2.5,4.7-4.1C261.2,197.5,261.6,195.5,261.6,193.3z M268.1,235.5c0-3.3-0.6-5.8-1.9-7.6c-1.3-1.8-3.4-3.1-6.5-4
		c-2.1-0.6-5-0.9-8.6-1c-3.7,0-7.5-0.1-11.5-0.1h-5.8v25.9h1.9c7.5,0,12.9,0,16.1-0.1c3.2,0,6.2-0.7,9-1.8c2.8-1.2,4.7-2.7,5.7-4.6
		C267.6,240.2,268.1,238,268.1,235.5z"/>
	<path class="st0" d="M362.8,269.7c-7.7,0-14.8-1.1-21.4-3.4c-6.5-2.3-12.1-5.7-16.8-10.2c-4.7-4.5-8.3-10.1-10.9-16.9
		c-2.6-6.7-3.9-14.5-3.9-23.4c0-8.2,1.2-15.7,3.7-22.4c2.5-6.7,6-12.4,10.7-17.2c4.5-4.6,10.1-8.2,16.8-10.7
		c6.7-2.5,14-3.8,21.9-3.8c4.4,0,8.3,0.2,11.8,0.7c3.5,0.5,6.8,1.1,9.7,1.9c3.1,0.9,5.9,1.9,8.5,3c2.5,1.1,4.8,2.1,6.7,3v25.2h-3.1
		c-1.3-1.1-2.9-2.4-4.9-4c-2-1.5-4.2-3-6.7-4.5c-2.6-1.5-5.3-2.7-8.3-3.7c-3-1-6.2-1.5-9.6-1.5c-3.8,0-7.3,0.6-10.7,1.8
		c-3.4,1.2-6.5,3.1-9.4,5.9c-2.7,2.6-5,6.1-6.7,10.5c-1.7,4.4-2.5,9.6-2.5,15.9c0,6.5,0.9,11.9,2.8,16.3c1.8,4.4,4.1,7.8,6.9,10.3
		c2.8,2.6,6,4.4,9.5,5.5c3.5,1.1,6.9,1.6,10.3,1.6c3.3,0,6.5-0.5,9.7-1.5c3.2-1,6.1-2.3,8.8-4c2.3-1.3,4.4-2.8,6.3-4.3
		c2-1.5,3.6-2.8,4.8-4h2.8v24.8c-2.6,1.2-5.1,2.3-7.5,3.3c-2.4,1-4.9,1.9-7.5,2.6c-3.4,1-6.6,1.7-9.6,2.2
		C372.1,269.5,368,269.7,362.8,269.7z"/>
</g>
</svg>
