<?xml version="1.0" encoding="utf-8"?>
<svg version="1.1" id="Layer_1" xmlns="http://www.w3.org/2000/svg" xmlns:xlink="http://www.w3.org/1999/xlink" x="0px" y="0px"
	 viewBox="0 0 512 512" style="enable-background:new 0 0 512 512;" xml:space="preserve">
<style type="text/css">
	.st0{fill:#555555;stroke:#FFFFFF;stroke-miterlimit:10;}
</style>
<g id="Ebene_2">
	<g id="H_Element_Sutdiumsbereich">
		<path class="st0" d="M444.8,191.2L257.7,250c-1.1,0.2-2.2,0.2-3.3,0l-109-34.4c-9.5,7.5-16.1,25.9-17.6,48.3
			c6.6,3.7,10.6,10.8,10.5,18.4c0,7.2-3.6,13.9-9.7,17.9l9.7,72.5c0.2,1.5-0.3,3-1.4,4.2c-1,1.2-2.5,1.9-4,1.9h-32.2
			c-1.5,0-3-0.7-4-1.9c-0.9-1.2-1.3-2.8-1-4.3l9.7-72.5c-9.8-6.5-12.6-19.7-6.1-29.5c1.9-2.8,4.4-5.2,7.3-6.8
			c0.3-19.5,5.9-38.6,16.1-55.1l-55.5-17.3c-2.9-1-4.4-4.1-3.5-6.9c0.5-1.6,1.8-2.9,3.5-3.5l187.1-58.9c1.1-0.2,2.2-0.2,3.3,0
			l187.1,58.8c2.9,1,4.4,4.1,3.5,6.9c-0.5,1.6-1.8,2.9-3.5,3.5L444.8,191.2z M363,293c1.4,23.6-48.3,42.8-106.9,42.8
			S147.8,316.5,149.1,293l3-52.8l95.9,30.3c5.3,1.6,10.9,1.6,16.1,0l95.9-30.3L363,293z"/>
	</g>
</g>
</svg>
