<svg xmlns="http://www.w3.org/2000/svg" viewBox="0 0 40 30"><defs><style>.cls-1{fill:#616e7f;}</style></defs><title>Element 24</title><g id="Ebene_2" data-name="Ebene 2"><g id="H_Element_Sutdiumsbereich" data-name="H_Element Sutdiumsbereich"><path class="cls-1" d="M40,26.88A3.13,3.13,0,0,1,36.88,30H3.13A3.13,3.13,0,0,1,0,26.88V3.13A3.13,3.13,0,0,1,3.13,0H36.88A3.13,3.13,0,0,1,40,3.13ZM37.5,3.13a.64.64,0,0,0-.62-.62H3.13a.64.64,0,0,0-.62.63V26.88a.64.64,0,0,0,.63.63H10V25.63a.62.62,0,0,1,.63-.62h1.25a.62.62,0,0,1,.63.63V27.5h15V25.63a.62.62,0,0,1,.63-.62h1.25a.62.62,0,0,1,.63.63V27.5h6.88a.64.64,0,0,0,.63-.62ZM17.5,22.5H7.5A2.67,2.67,0,0,1,5,19.59c0-3,.74-6.39,3.83-6.39,1,.55,2.25,1.48,3.67,1.48s2.71-.94,3.67-1.48c3.09,0,3.83,3.36,3.83,6.39A2.67,2.67,0,0,1,17.5,22.5Zm-5-8.63a4.43,4.43,0,1,1,4.43-4.43A4.43,4.43,0,0,1,12.5,13.87ZM35,9.38a.62.62,0,0,1-.62.63H23.13a.62.62,0,0,1-.62-.62V8.13a.62.62,0,0,1,.63-.62H34.38a.62.62,0,0,1,.63.63Zm0,4.92a.7.7,0,0,1-.7.7H23.2a.7.7,0,0,1-.7-.7V13.2a.7.7,0,0,1,.7-.7H34.3a.7.7,0,0,1,.7.7Zm0,5.08a.62.62,0,0,1-.62.63H23.13a.62.62,0,0,1-.62-.62V18.13a.62.62,0,0,1,.63-.62H34.38a.62.62,0,0,1,.63.63Z"/></g></g></svg>