<svg xmlns="http://www.w3.org/2000/svg" viewBox="0 0 33.32 45.24"><defs><style>.cls-1,.cls-2{fill:none;}.cls-1,.cls-2,.cls-3{stroke:#616e7f;stroke-linecap:round;stroke-linejoin:round;}.cls-1{stroke-width:2px;}.cls-3{fill:#616e7f;}</style></defs><title>Element 19</title><g id="Ebene_2" data-name="Ebene 2"><g id="H_Element_Sutdiumsbereich" data-name="H_Element Sutdiumsbereich"><path id="_Pfad_" data-name="&lt;Pfad&gt;" class="cls-1" d="M23.71,7.88a6.55,6.55,0,0,1,4.75,2.28V1H22.89V7.88Z"/><path id="_Pfad_2" data-name="&lt;Pfad&gt;" class="cls-1" d="M9.63,7.88h1.48V1H5.58V9.51A6.16,6.16,0,0,1,9.63,7.88Z"/><path id="_Pfad_3" data-name="&lt;Pfad&gt;" class="cls-1" d="M19.11,22.93h4.45a8.64,8.64,0,0,0,6.18-2.6l1.48-1.51"/><path id="_Pfad_4" data-name="&lt;Pfad&gt;" class="cls-1" d="M2.1,18.63l1.67,1.7a8.64,8.64,0,0,0,6.18,2.6h3.63"/><path id="_Pfad_5" data-name="&lt;Pfad&gt;" class="cls-2" d="M21,40h-8.6a4.72,4.72,0,0,1-4.72-5L8,28h17.2l.39,7A4.65,4.65,0,0,1,21,40Z"/><rect id="_Pfad_6" data-name="&lt;Pfad&gt;" class="cls-3" x="13.78" y="21.26" width="5.21" height="3.69"/><path id="_Pfad_7" data-name="&lt;Pfad&gt;" class="cls-1" d="M13.78,8.55V8.17A3.4,3.4,0,0,1,17,4.61h0a3.4,3.4,0,0,1,3.22,3.56v.38"/><path id="_Pfad_8" data-name="&lt;Pfad&gt;" class="cls-1" d="M25.38,44.24H8A7,7,0,0,1,1,37l.82-20.92A7.86,7.86,0,0,1,9.63,8.55h14a7.81,7.81,0,0,1,7.81,7.51L32.31,37A6.94,6.94,0,0,1,25.38,44.24Z"/></g></g></svg>