<svg xmlns="http://www.w3.org/2000/svg" viewBox="0 0 35.95 45.94"><defs><style>.cls-1{fill:#616e7f;}</style></defs><title>Element 23</title><g id="Ebene_2" data-name="Ebene 2"><g id="H_Element_Sutdiumsbereich" data-name="H_Element Sutdiumsbereich"><path class="cls-1" d="M0,45.94V19a4,4,0,0,1,4-4H4V11A2,2,0,0,1,6,9H8V1a1,1,0,0,1,2,0V9h2a2,2,0,0,1,2,2v4h0a4,4,0,0,1,4,4v8h7V21h4V18h6v3h1v25ZM12,12a1,1,0,0,0-1-1H7a1,1,0,0,0-1,1v3h6Zm4,7a2,2,0,0,0-2-2H4a2,2,0,0,0-2,2v25H16Zm9,10H18v15h7Zm9-6H27v21h7Zm-4,3h1a1,1,0,0,1,1,1v1a1,1,0,0,1-1,1H30a1,1,0,0,1-1-1V27A1,1,0,0,1,30,26Zm0,6h1a1,1,0,0,1,1,1v1a1,1,0,0,1-1,1H30a1,1,0,0,1-1-1V33A1,1,0,0,1,30,32Zm0,6h1a1,1,0,0,1,1,1v1a1,1,0,0,1-1,1H30a1,1,0,0,1-1-1v-1A1,1,0,0,1,30,38Zm-9-6h1a1,1,0,0,1,1,1v1a1,1,0,0,1-1,1H21a1,1,0,0,1-1-1V33A1,1,0,0,1,21,32Zm0,6h1a1,1,0,0,1,1,1v1a1,1,0,0,1-1,1H21a1,1,0,0,1-1-1v-1A1,1,0,0,1,21,38Zm-9,3H11a1,1,0,0,1-1-1v-1a1,1,0,0,1,1-1h1a1,1,0,0,1,1,1v1A1,1,0,0,1,12,40.95Zm0-6H11a1,1,0,0,1-1-1V33a1,1,0,0,1,1-1h1a1,1,0,0,1,1,1v1A1,1,0,0,1,12,35Zm0-6H11a1,1,0,0,1-1-1V27a1,1,0,0,1,1-1h1a1,1,0,0,1,1,1v1A1,1,0,0,1,12,29Zm0-6H11a1,1,0,0,1-1-1V21a1,1,0,0,1,1-1h1a1,1,0,0,1,1,1v1A1,1,0,0,1,12,23Zm-5,18H6a1,1,0,0,1-1-1v-1a1,1,0,0,1,1-1H7a1,1,0,0,1,1,1v1A1,1,0,0,1,7,40.95Zm0-6H6a1,1,0,0,1-1-1V33a1,1,0,0,1,1-1H7a1,1,0,0,1,1,1v1A1,1,0,0,1,7,35Zm0-6H6a1,1,0,0,1-1-1V27a1,1,0,0,1,1-1H7a1,1,0,0,1,1,1v1A1,1,0,0,1,7,29Zm0-6H6a1,1,0,0,1-1-1V21a1,1,0,0,1,1-1H7a1,1,0,0,1,1,1v1A1,1,0,0,1,7,23Z"/></g></g></svg>