<?xml version="1.0" encoding="utf-8"?>
<svg version="1.1" id="Layer_1" xmlns="http://www.w3.org/2000/svg" xmlns:xlink="http://www.w3.org/1999/xlink" x="0px" y="0px"
	 viewBox="0 0 512 512" style="enable-background:new 0 0 512 512;" xml:space="preserve">
<style type="text/css">
	.st0{fill:#555555;}
</style>
<path class="st0" d="M332.3,403H164.2c-24.7-1.5-43.6-22.7-42.1-47.5c0-0.5,0.1-1,0.1-1.4c0-50.4,12.4-107.4,64.4-107.4
	c16.8,9.2,37.8,24.9,61.7,24.9s45.6-15.8,61.7-24.9c51.9,0,64.4,56.5,64.4,107.4c2.3,24.7-15.9,46.5-40.6,48.8
	C333.2,402.9,332.7,403,332.3,403z"/>
<path class="st0" d="M248.2,257.9c-41.1,0-74.5-33.3-74.5-74.5s33.3-74.5,74.5-74.5c41.1,0,74.5,33.3,74.5,74.5l0,0
	C322.7,224.6,289.3,257.9,248.2,257.9z"/>
</svg>
