<?xml version="1.0" encoding="utf-8"?>
<svg version="1.1" id="Layer_1" xmlns="http://www.w3.org/2000/svg" xmlns:xlink="http://www.w3.org/1999/xlink" x="0px" y="0px"
	 viewBox="0 0 512 512" style="enable-background:new 0 0 512 512;" xml:space="preserve">
<style type="text/css">
	.st0{fill:#555555;}
</style>
<path class="st0" d="M438.5,244.5c0,33.2,0.1,66.3,0,99.5c-0.1,24.6-8.6,36.1-32.4,40.9c-46.6,9.2-93.2,19.1-140.2,25.5
	c-18.4,2.5-38-2.4-56.8-5.6c-33.8-5.8-67.4-13-101.2-19.2c-26.8-4.9-36.4-15.9-36.4-43.3c0-65.9-0.1-131.7,0-197.6
	c0-6.1,0.2-12.4,1.5-18.4c3.6-17.5,18-26.2,35.7-22.8c46.2,8.9,92.2,19.5,138.8,25.3c20.2,2.5,41.8-4.4,62.6-8.1
	c31.9-5.7,63.7-12.4,95.5-18.5c14.6-2.8,30.2,9.7,31.7,27.2c1.6,17.9,1,36,1.1,53.9C438.6,203.8,438.5,224.2,438.5,244.5z
	 M104.1,134.5c-1.3,3.3-2,4.1-2,5c-0.2,68.2-0.4,136.3,0,204.5c0,3.7,5.5,9.6,9.4,10.6c26,6.4,52.2,11.8,78.4,17.2
	c15.8,3.3,31.7,6.2,49.3,9.6c0-72.1,0.1-141.5-0.4-211c0-3.2-5.5-8.2-9.2-9.2c-21.4-5.3-43.1-9.8-64.7-14.4
	C144.8,142.5,124.7,138.6,104.1,134.5z M271.5,379.8c4,0,7.3,0.6,10.4-0.1c37.7-8.1,75.1-17,113-24.1c11.3-2.1,13.5-6.5,13.5-16.6
	c-0.3-63.4-0.2-126.8-0.2-190.3c0-4.2-0.5-8.3-0.8-13.2c-4.2,0-7.5-0.6-10.6,0.1c-37.7,8.1-75.1,17-113,24.2
	c-11.2,2.1-13.4,6.6-13.4,16.7c0.3,63.4,0.2,126.8,0.2,190.3C270.7,370.9,271.2,375.1,271.5,379.8z"/>
</svg>
